<?xml version="1.0" standalone="no"?>
<!DOCTYPE svg PUBLIC "-//W3C//DTD SVG 20010904//EN"
 "http://www.w3.org/TR/2001/REC-SVG-20010904/DTD/svg10.dtd">
<svg version="1.0" xmlns="http://www.w3.org/2000/svg"
 width="180.000000pt" height="180.000000pt" viewBox="0 0 180.000000 180.000000"
 preserveAspectRatio="xMidYMid meet">

<g transform="translate(0.000000,180.000000) scale(0.100000,-0.100000)"
fill="#000000" stroke="none">
<path d="M725 1631 c-145 -35 -284 -119 -391 -234 -62 -66 -114 -133 -98 -126
5 3 36 17 69 32 115 53 205 70 345 64 133 -5 187 -19 290 -73 30 -16 58 -30
63 -32 4 -2 6 83 5 190 l-3 193 -105 2 c-72 1 -127 -4 -175 -16z"/>
<path d="M1050 1437 l0 -203 46 -44 c57 -57 110 -127 149 -199 l30 -56 195 -3
c107 -1 200 0 206 2 9 3 9 20 -1 68 -36 167 -110 305 -229 423 -110 109 -227
176 -368 209 l-28 6 0 -203z"/>
<path d="M485 1315 c-137 -30 -286 -109 -306 -162 -46 -121 -55 -323 -20 -455
11 -42 35 -108 53 -145 l33 -68 6 65 c8 88 24 142 65 220 82 158 211 263 375
305 48 13 93 16 181 13 110 -4 120 -6 190 -41 40 -20 93 -54 116 -76 24 -22
41 -33 37 -23 -20 53 -80 133 -149 198 -158 150 -378 213 -581 169z"/>
<path d="M710 1035 c-99 -27 -180 -74 -249 -144 -108 -108 -156 -221 -165
-389 l-4 -83 48 -58 c51 -61 156 -144 229 -181 54 -27 171 -72 171 -65 0 3
-16 26 -36 52 -45 59 -67 108 -88 200 -20 88 -20 147 -1 238 23 108 75 205
154 284 77 76 140 110 220 119 l55 5 -39 15 c-59 21 -228 25 -295 7z"/>
<path d="M1006 887 c-51 -29 -76 -64 -83 -115 -12 -92 29 -166 112 -197 36
-14 49 -15 82 -5 95 31 145 125 117 219 -16 53 -43 83 -96 106 -51 21 -86 19
-132 -8z"/>
<path d="M1295 868 c4 -13 9 -55 12 -94 4 -58 1 -80 -17 -123 -27 -62 -84
-113 -154 -140 l-51 -19 65 -7 c203 -21 420 94 506 271 14 29 28 71 31 93 l6
41 -203 0 -202 0 7 -22z"/>
<path d="M772 816 c-82 -90 -122 -196 -122 -326 0 -141 59 -285 148 -357 l42
-36 128 6 c101 4 142 10 199 30 92 33 113 44 93 50 -177 55 -212 72 -301 154
-67 62 -128 154 -155 233 -27 81 -26 202 4 258 12 23 21 42 18 42 -2 0 -26
-24 -54 -54z"/>
<path d="M1655 671 c-10 -34 -127 -134 -200 -173 -88 -45 -169 -62 -284 -56
-81 4 -98 8 -174 46 -46 23 -99 56 -116 74 -32 33 -32 33 -22 6 45 -120 142
-228 257 -286 59 -30 206 -66 237 -58 36 9 139 106 193 182 48 67 95 163 114
233 11 43 8 71 -5 32z"/>
</g>
</svg>
